<svg width="864" height="293" viewBox="0 0 864 293" fill="none" xmlns="http://www.w3.org/2000/svg">
<path d="M825.821 19.0721C825.821 13.8214 827.683 9.31588 831.406 5.58954C835.129 1.8632 839.597 3.05176e-05 844.877 3.05176e-05C850.157 3.05176e-05 854.658 1.8632 858.381 5.58954C862.104 9.31588 863.966 13.8214 863.966 19.0721C863.966 24.3567 862.104 28.8284 858.381 32.5547C854.658 36.281 850.157 38.1442 844.877 38.1442C839.597 38.1442 835.129 36.281 831.406 32.5547C827.683 28.8284 825.821 24.3567 825.821 19.0721ZM829.646 19.0721C829.646 23.3405 831.135 26.9313 834.114 29.9124C837.092 32.8935 840.68 34.3501 844.877 34.3501C849.073 34.3501 852.695 32.8935 855.673 29.9124C858.652 26.9313 860.141 23.3405 860.141 19.0721C860.141 14.8376 858.652 11.2468 855.673 8.26573C852.695 5.28466 849.073 3.79412 844.877 3.79412C840.68 3.79412 837.092 5.28466 834.114 8.26573C831.135 11.2468 829.646 14.8376 829.646 19.0721ZM833.741 20.1223V19.0721C833.741 17.0057 834.181 15.4813 835.129 14.4989C835.671 13.9569 836.28 13.5504 836.923 13.3471C837.566 13.1439 838.615 13.0422 840.037 13.0422H843.929V16.5653H840.037C838.75 16.5653 837.972 16.8024 837.701 17.2089C837.566 17.4122 837.431 17.6493 837.363 17.9542C837.295 18.2591 837.261 18.5301 837.261 18.7334V19.0721V20.1223C837.261 20.9353 837.397 21.5112 837.701 21.8499C838.006 22.3919 838.784 22.6291 840.037 22.5952H843.929V26.1522H840.037C838.649 26.1522 837.634 26.0505 836.991 25.8134C836.314 25.5763 835.704 25.1698 835.129 24.56C834.181 23.6792 833.741 22.2226 833.741 20.1223ZM845.384 20.1223V19.0721C845.384 17.0057 845.824 15.4813 846.772 14.4989C847.313 13.9569 847.923 13.5504 848.566 13.3471C849.209 13.1439 850.258 13.0422 851.68 13.0422H855.572V16.5653H851.68C850.393 16.5653 849.615 16.8024 849.344 17.2089C849.209 17.4122 849.073 17.6493 849.006 17.9542C848.938 18.2591 848.904 18.5301 848.904 18.7334V19.0721V20.1223C848.904 20.9353 849.04 21.5112 849.344 21.8499C849.649 22.3919 850.427 22.6291 851.68 22.5952H855.572V26.1522H851.68C850.292 26.1522 849.277 26.0505 848.633 25.8134C847.99 25.5763 847.381 25.1698 846.772 24.56C845.824 23.6792 845.384 22.2226 845.384 20.1223Z" fill="#CA0F0F"/>
<path d="M697.118 159.133L721.47 2.5477L776.738 2.5477L801.09 159.133H771.039L766.03 129.27H731.833L727.17 159.133L697.118 159.133ZM736.669 99.0596H761.539L749.104 20.0613L736.669 99.0596Z" fill="#CA0F0F"/>
<path d="M778.348 0.668667L803.285 161.012H769.449L764.44 131.149H733.441L728.778 161.012L694.924 161.012L719.861 0.668667L778.348 0.668667ZM721.47 2.5477L697.118 159.133L727.17 159.133L731.833 129.27H766.03L771.039 159.133H801.09L776.738 2.5477L721.47 2.5477ZM761.539 99.0596H736.669L749.104 20.0613L761.539 99.0596ZM738.867 97.1803H759.342L749.104 32.146L738.867 97.1803Z" fill="#CA0F0F"/>
<path d="M565.586 32.758V2.5477L665.801 2.5477V32.758H630.502V159.133H600.541V32.758H565.586Z" fill="#CA0F0F"/>
<path d="M665.801 32.758V2.5477L565.586 2.5477V32.758H600.541V159.133H630.502V32.758H665.801ZM667.68 34.6373H632.381V161.012H598.662V34.6373H563.707V0.668667L667.68 0.668667V34.6373Z" fill="#CA0F0F"/>
<path d="M450.339 159.133V2.5477L528.006 2.5477V32.758H480.31V52.0302H521.742V82.2405L480.31 82.2405V159.133H450.339Z" fill="#CA0F0F"/>
<path d="M521.742 82.2405V52.0302H480.31V32.758H528.006V2.5477L450.339 2.5477V159.133H480.31V82.2405L521.742 82.2405ZM529.885 34.6373H482.189V50.1509H523.621V84.1195L482.189 84.1195V161.012H448.46V0.668667L529.885 0.668667V34.6373Z" fill="#CA0F0F"/>
<path d="M289.996 159.133L314.348 2.5477L369.616 2.5477L393.969 159.133H363.917L358.908 129.27H324.711L320.048 159.133H289.996ZM329.547 99.0596H354.418L341.982 20.0613L329.547 99.0596Z" fill="#CA0F0F"/>
<path d="M371.226 0.668667L396.163 161.012H362.327L357.318 131.149H326.32L321.656 161.012H287.802L312.739 0.668667L371.226 0.668667ZM314.348 2.5477L289.996 159.133H320.048L324.711 129.27H358.908L363.917 159.133H393.969L369.616 2.5477L314.348 2.5477ZM354.418 99.0596H329.547L341.982 20.0613L354.418 99.0596ZM331.745 97.1803H352.22L341.982 32.146L331.745 97.1803Z" fill="#CA0F0F"/>
<path d="M139.674 159.133L139.674 2.5477L189.156 2.5477C218.325 4.45755 232.909 22.1671 232.909 55.5026C232.909 66.4408 231.52 77.1831 228.742 84.128C225.964 91.073 220.929 96.6289 213.984 100.796L239.262 159.133H207.006L185.51 107.22H169.884V159.133L139.674 159.133ZM169.884 78.7457H183.427C197.664 78.7457 204.782 69.3924 204.782 54.1136C204.782 45.0852 202.699 39.0084 198.879 35.7096C194.886 32.4108 188.983 30.6746 180.996 30.6746H169.884V78.7457Z" fill="#CA0F0F"/>
<path d="M137.795 0.668667L189.218 0.668667L189.279 0.672959C204.23 1.65193 215.713 6.70917 223.42 16.044C231.092 25.3378 234.788 38.5923 234.788 55.5029C234.788 66.5358 233.395 77.556 230.487 84.8259C227.729 91.721 222.885 97.2847 216.351 101.532L242.124 161.012H205.75L184.254 109.099H171.763V161.012L137.795 161.012L137.795 0.668667ZM202.903 54.1138C202.903 45.2973 200.858 39.9165 197.67 37.1488C194.139 34.2384 188.735 32.5534 180.996 32.5534L171.763 32.5534V76.867H183.427L183.427 78.7457H169.884V30.6746H180.996C188.983 30.6746 194.886 32.4108 198.879 35.7096C202.699 39.0084 204.782 45.0852 204.782 54.1136L204.777 54.8252C204.558 69.6823 197.441 78.7457 183.427 78.7457L183.427 76.867C190.107 76.867 194.87 74.6915 198.003 70.9522C201.181 67.1593 202.903 61.4929 202.903 54.1138ZM139.674 159.133L169.884 159.133V107.22H185.51L207.006 159.133H239.262L213.984 100.796C220.712 96.7591 225.648 91.4189 228.475 84.7752L228.742 84.128C231.433 77.4002 232.821 67.1085 232.905 56.5274L232.909 55.5026C232.909 22.1671 218.325 4.45755 189.156 2.5477L139.674 2.5477L139.674 159.133Z" fill="#CA0F0F"/>
<path d="M1.87902 201.103L1.87902 53.1916C1.87902 35.5691 5.67994 22.7841 13.2818 15.0095C18.1193 9.82642 23.4752 6.37103 29.0038 4.64334C34.5324 2.91564 43.1708 1.87902 55.2647 1.87902L83.3034 1.87902V33.1503H59.9295C51.9821 33.1503 46.6262 33.4959 43.5164 34.0142C40.4065 34.7052 37.9878 36.2602 36.2601 38.6789C34.1869 41.7888 32.9775 47.1447 32.9775 54.401L32.9775 200.066C33.6685 206.977 35.0507 211.815 37.2967 214.925C40.061 219.244 46.4535 221.317 56.3013 221.317L83.3034 221.502V252.416H58.8928C45.0713 252.416 35.3962 251.552 29.5221 249.824C23.6479 248.096 18.1193 244.468 13.2818 239.285C5.67994 231.683 1.87902 218.898 1.87902 201.103Z" fill="#CA0F0F"/>
<path d="M0 201.103L0 53.1913C3.96821e-05 35.3942 3.82212 22.0209 11.9078 13.7275C16.9327 8.34371 22.5587 4.68873 28.4435 2.84973C34.2428 1.03748 43.1052 0 55.2648 0L55.2647 1.87902L54.1412 1.88208C42.6341 1.94451 34.3597 2.96963 29.0038 4.64334C23.4752 6.37103 18.1193 9.82642 13.2818 15.0095C5.67994 22.7841 1.87902 35.5691 1.87902 53.1916L1.87902 201.103L1.88208 201.933C1.99898 219.296 5.79877 231.802 13.2818 239.285C18.1193 244.468 23.6479 248.096 29.5221 249.824C35.3962 251.552 45.0713 252.416 58.8928 252.416H83.3034V221.502L56.3013 221.317C46.4535 221.317 40.061 219.244 37.2967 214.925C35.0507 211.815 33.6685 206.977 32.9775 200.066L32.9775 54.401C32.9775 47.1447 34.1869 41.7888 36.2601 38.6789C37.9878 36.2602 40.4065 34.7052 43.5164 34.0142C46.6262 33.4959 51.9821 33.1503 59.9295 33.1503H83.3034V1.87902L55.2647 1.87902L55.2648 0L85.1824 0V35.0292H59.9294C52.0447 35.0292 46.8276 35.3723 43.8684 35.8605C41.2159 36.4617 39.2352 37.7597 37.8086 39.7433C36.0541 42.3923 34.8567 47.2855 34.8567 54.4012L34.8567 199.973C35.5202 206.528 36.7977 210.861 38.6393 213.566L38.8197 213.825L38.8509 213.867L38.8796 213.911C41.0694 217.333 46.5026 219.438 56.3016 219.438H56.3144L85.1824 219.636L85.1824 254.295H58.8926C45.0567 254.295 35.1461 253.436 28.9921 251.627C22.7424 249.788 16.9386 245.954 11.9182 240.578C3.81589 232.448 4.06194e-05 219.058 0 201.103Z" fill="#CA0F0F"/>
<path d="M844.875 259.19C844.401 259.19 844.212 258.907 844.212 258.719V256.08C844.212 255.891 844.306 255.514 844.78 255.326L847.336 254.478C848.472 254.101 849.798 253.535 849.798 251.367V187.465C849.798 182.941 846.768 183.224 845.443 182.658C844.875 182.376 844.401 182.093 844.401 181.433V179.925C844.401 179.36 844.78 179.077 845.348 179.077H856.047C857.752 179.077 858.13 179.548 858.13 180.962V251.367C858.13 253.535 859.456 254.101 860.592 254.478L863.054 255.326C863.527 255.514 863.622 255.891 863.622 256.08V258.719C863.622 258.907 863.433 259.19 862.959 259.19H844.875Z" fill="#CA0F0F"/>
<path d="M739.717 260.039C731.669 260.039 728.734 256.08 728.734 251.367C728.734 246.938 730.154 244.581 732.143 243.733L751.931 235.628V225.354C751.931 217.249 747.292 216.4 744.357 216.4C740.001 216.4 737.066 218.474 736.877 221.773C736.687 225.166 735.267 225.731 732.237 226.862C729.681 227.805 729.397 225.731 729.397 224.129C729.397 221.396 730.817 218.945 733.563 217.154C737.35 214.704 743.883 211.405 748.333 211.405C753.257 211.405 760.264 213.573 760.264 223.563V250.613C760.264 254.006 760.926 254.195 761.684 254.195C762.631 254.289 764.619 253.158 765.471 253.158C766.134 253.158 766.607 253.441 766.607 254.289C766.607 256.269 760.264 259.944 755.435 259.944C753.352 259.944 752.121 259.379 752.121 257.4C752.121 256.363 751.837 256.174 751.363 256.363C748.428 257.871 745.209 260.039 739.717 260.039ZM744.83 255.986C747.197 255.986 751.931 254.101 751.931 252.121V238.738L741.232 243.073C738.581 244.11 737.255 246.843 737.255 249.671C737.255 253.441 739.812 255.986 744.83 255.986Z" fill="#CA0F0F"/>
<path d="M600.663 259.19C600.19 259.19 600 258.908 600 258.719V256.08C600 255.892 600.095 255.515 600.569 255.326L603.125 254.478C604.261 254.101 605.587 253.535 605.587 251.367V225.825C605.587 219.134 601.421 219.039 601.421 217.154C601.421 216.306 601.799 216.023 602.936 215.458L611.268 211.405C612.499 210.84 613.824 210.84 613.824 212.725V219.039C616.76 216.872 623.387 211.311 631.53 211.311C637.969 211.311 644.029 216.023 644.029 224.035V251.367C644.029 253.535 645.354 254.101 646.49 254.478L648.952 255.326C649.426 255.515 649.52 255.892 649.52 256.08V258.719C649.52 258.908 649.331 259.19 648.858 259.19H630.489C630.015 259.19 629.826 258.908 629.826 258.719V256.08C629.826 255.892 629.921 255.515 630.394 255.326L633.235 254.478C634.371 254.101 635.696 253.535 635.696 251.367V226.485C635.696 220.642 631.53 217.437 626.323 217.437C621.02 217.437 616.097 220.17 613.919 221.49V251.367C613.919 253.535 615.245 254.101 616.381 254.478L619.221 255.326C619.695 255.515 619.789 255.892 619.789 256.08V258.719C619.789 258.908 619.6 259.19 619.127 259.19H600.663Z" fill="#CA0F0F"/>
<path d="M490.978 259.19C490.504 259.19 490.315 258.907 490.315 258.719V256.08C490.315 255.891 490.41 255.514 490.883 255.326L493.439 254.478C494.576 254.101 495.901 253.535 495.901 251.367V222.904C495.901 219.133 491.735 218.662 491.735 217.154C491.735 215.74 494.008 214.892 495.238 214.327L501.298 211.405C502.529 210.839 504.233 211.122 504.233 212.536V219.039C504.896 218.002 509.725 211.122 515.311 211.122C518.625 211.122 522.507 213.761 522.507 215.269C522.507 217.343 519.099 222.15 516.637 222.15C515.122 222.15 514.27 218.097 511.145 218.097C507.547 218.097 504.233 221.396 504.233 223.846V249.671C504.233 253.818 506.885 254.478 507.926 254.76L512.187 255.891C512.66 255.986 512.755 256.363 512.755 256.645V258.719C512.755 258.907 512.566 259.19 512.092 259.19H490.978Z" fill="#CA0F0F"/>
<path d="M377.964 260.227C370.862 260.227 365.465 255.326 365.465 247.315V220.453C365.465 215.74 362.436 216.023 361.11 215.458C360.542 215.175 360.068 214.892 360.068 214.232V212.913C360.068 212.347 360.447 212.065 361.015 212.065H371.715C373.419 212.065 373.798 212.536 373.798 213.95V245.053C373.798 250.896 377.964 254.101 383.171 254.101C389.61 254.101 394.628 250.708 396.522 248.917V222.055C396.522 215.929 391.22 216.023 389.042 215.552C388.284 215.363 387.622 215.081 387.622 214.044V213.007C387.622 212.536 387.811 212.065 388.663 212.065H402.771C404.475 212.065 404.854 212.536 404.854 213.95V252.404C404.854 253.535 405.043 254.006 406.369 254.289L409.778 255.137C410.724 255.326 410.819 255.42 410.819 256.174V257.776C410.819 258.436 410.63 258.625 409.778 258.719L398.51 260.133C396.995 260.321 396.522 260.038 396.522 258.342V252.498C394.249 254.572 386.107 260.227 377.964 260.227Z" fill="#CA0F0F"/>
<path d="M257.721 260.132C243.14 260.132 233.293 251.367 233.293 236.287C233.293 223.092 243.045 211.028 258.668 211.028C274.291 211.028 282.718 221.207 282.718 236.287C282.718 249.482 272.492 260.132 257.721 260.132ZM259.047 256.08C268.515 256.08 273.439 246.466 273.439 236.664C273.439 226.485 268.326 215.081 257.532 215.081C246.832 215.081 242.572 227.239 242.572 235.156C242.572 244.958 249.2 256.08 259.047 256.08Z" fill="#CA0F0F"/>
<path d="M134.848 291.518C134.09 291.047 133.049 290.105 133.806 288.785C136.079 284.827 141.286 279.926 141.381 263.526L141.57 222.621C141.57 218.851 137.688 218.662 137.688 217.154C137.688 215.741 139.961 214.892 141.191 214.327L146.967 211.405C148.198 210.84 149.808 210.18 149.808 211.594V271.726C149.808 274.176 148.577 277.475 147.63 279.077C144.316 284.732 142.896 286.806 138.919 291.33C137.783 292.649 136.173 292.272 134.848 291.518ZM144.505 192.838C141.381 192.838 139.582 190.199 139.582 187.654C139.582 185.109 141.949 182.753 144.505 182.753C147.062 182.753 149.713 184.638 149.713 187.654C149.713 190.104 147.63 192.838 144.505 192.838Z" fill="#CA0F0F"/>
</svg>
